<?xml version="1.0" encoding="utf-8"?>
<!-- Generator: Adobe Illustrator 26.3.1, SVG Export Plug-In . SVG Version: 6.00 Build 0)  -->
<svg version="1.1" id="Layer_1" xmlns="http://www.w3.org/2000/svg" xmlns:xlink="http://www.w3.org/1999/xlink" x="0px" y="0px"
	 viewBox="0 0 300 85" style="enable-background:new 0 0 300 85;" xml:space="preserve">
<style type="text/css">
	.st0{fill:#E65300;}
	.st1{fill:#003A70;}
</style>
<g id="primary_logo_-_color_00000100372764091233198840000009888497592041312901_">
	<g>
		<g>
			<path class="st0" d="M36.5,2.1C18.2,3.5,3.4,18.4,2.2,36.8c-1.4,21.8,16,39.8,37.4,39.7c3.4,0,6.7-0.5,9.9-1.4
				c1.5-0.4,2.2-2,1.7-3.4l-2.2-6.1c-0.5-1.3-1.8-2-3.2-1.6c-2.3,0.6-4.6,0.9-7,0.8C26.1,64.5,15.2,54.5,14,41.7
				c-1.5-15.9,11.7-29.3,27.7-28c12.9,1.1,23,12,23.3,24.9c0.1,2.4-0.2,4.8-0.8,7.1c-0.3,1.3,0.3,2.7,1.6,3.2l6.1,2.2
				c1.4,0.5,3-0.3,3.4-1.7c0.9-3.4,1.4-6.8,1.4-10.4C76.6,17.5,58.3,0.4,36.5,2.1"/>
			<path class="st0" d="M62.2,54.9c-3.6,0-6.4,2.9-6.4,6.5c0,3.6,2.9,6.4,6.5,6.4c3.6,0,6.4-2.9,6.4-6.5
				C68.6,57.8,65.7,54.9,62.2,54.9"/>
		</g>
		<g>
			<path class="st1" d="M243.9,52.4c-2.1,0.1-3.4,0.2-5.8,1.1c-2.6,1.1-4.9,3.3-5.8,5.6c-0.9,2.2-1.1,3.7-1.1,4.9
				c0,1.4,0.3,2.8,0.7,4.2c0.5,1.3,1.2,2.5,2.1,3.6c0.9,1,2,1.9,3.4,2.5c1.4,0.6,2.9,0.9,4.6,1c1.5,0,2.9-0.2,4.1-0.7
				c0.5-0.2,1-0.5,1.6-0.9l0.3,1.4h4.4V63v-9.2C249.3,52.8,246.6,52.3,243.9,52.4z M247,68.3c0,0-1.6,1.7-4.2,1.9
				c-1.4,0.1-2-0.1-2.6-0.4c-0.7-0.3-1.3-0.6-1.8-1.1c-0.5-0.5-1-1.2-1.3-2c-0.3-0.8-0.5-1.8-0.5-2.8c0-1,0.2-2,0.6-2.8
				c0.4-0.9,1-1.6,1.8-2.1c2.4-1.9,5.9-1.7,8-1.1L247,68.3z"/>
			<path class="st1" d="M149,53.8c-1.7-0.9-3.7-1.4-5.8-1.4c-3.3,0-6,1.1-8.2,3.2c-2.2,2.1-3.3,4.9-3.3,8.3c0,2.2,0.5,4.1,1.5,5.9
				c1,1.7,2.4,3.1,4.1,4.1c1.7,1,3.7,1.4,5.8,1.4c3.3,0,6-1.1,8.2-3.2c2.2-2.1,3.2-4.9,3.2-8.2c0-2.2-0.5-4.2-1.5-6
				C152.1,56.1,150.8,54.7,149,53.8z M147.1,68.3c-1.1,1.1-2.4,1.6-3.9,1.6c-0.9,0-1.8-0.2-2.6-0.7c-0.9-0.4-1.6-1.1-2.2-2.1
				c-0.6-1-0.9-2.1-0.9-3.3c0-1,0.2-1.9,0.5-2.7c0.3-0.8,0.8-1.4,1.4-1.9c0.6-0.5,1.2-0.9,1.8-1.1c0.7-0.3,1.3-0.4,2-0.4
				c1.5,0,2.8,0.5,4,1.6c1.1,1,1.7,2.5,1.7,4.5C148.8,65.7,148.3,67.2,147.1,68.3z"/>
			<path class="st1" d="M168,52.4c-0.7,0-1.5,0.1-2.2,0.3c-1.2,0.4-2.3,1.1-3.1,2.2l-0.5-2.3h-4.8v22.2h5.9V61.2
				c0-1.1,0.4-2,1.2-2.6c0.7-0.5,1.6-0.8,2.5-0.8h0.3c1.1,0.1,2.1,0.4,3,1l2.5-4.5c-1-0.8-2.1-1.4-3.3-1.7
				C169,52.4,168.5,52.4,168,52.4z"/>
			<polygon class="st1" points="195,52.9 188,52.9 180.9,60.4 180.9,44.6 175.2,44.6 175.2,74.8 180.9,74.8 180.9,67.2 182.3,65.7 
				188.8,74.8 195.3,74.8 186.2,62.1 			"/>
			<path class="st1" d="M215,55.9c-0.9-1.1-2.2-1.9-3.6-2.6c-1.5-0.6-3.1-1-4.9-1c-3.2,0-6.1,0.5-8.8,1.4V83h5.9v-8.3
				c1.2,0.3,2.3,0.4,3.2,0.4c2.1,0,4-0.5,5.7-1.6c1.7-1.1,3.1-2.5,4-4.2c1-1.8,1.4-3.7,1.4-5.7c0-1.4-0.3-2.8-0.8-4.2
				C216.7,58.2,215.9,57,215,55.9z M210.3,68c-1.2,1.2-2.6,1.8-4.2,1.8c-0.8,0-1.6-0.2-2.5-0.5V57.8c0.6-0.1,1.6-0.2,2.9-0.3
				c1.2,0,2.2,0.3,3.1,0.9c0.9,0.6,1.5,1.4,2,2.3c0.4,0.9,0.6,1.8,0.6,2.7C212.1,65.3,211.5,66.8,210.3,68z"/>
			<path class="st1" d="M268.7,69.7c-0.7,0.3-1.4,0.4-2,0.4c-0.3,0-0.6,0-0.9-0.1c-0.9-0.2-1.8-0.5-2.5-1c-0.8-0.5-1.4-1.2-1.8-2.1
				c-0.4-0.9-0.7-1.8-0.7-2.9c0-1,0.2-2,0.5-2.9c0.3-0.8,0.8-1.5,1.4-2c0.6-0.5,1.2-0.9,1.9-1.2c0.7-0.2,1.3-0.4,2-0.4h0.2
				c0.8,0,1.5,0.2,2.3,0.5c0.8,0.3,1.5,0.8,2.1,1.4l3.3-3.6c-1.3-1.3-2.6-2.2-3.9-2.7c-1.3-0.5-2.7-0.8-4.3-0.8
				c-1.8,0-3.4,0.3-4.8,1c-1.4,0.6-2.6,1.5-3.6,2.6c-0.9,1.1-1.7,2.3-2.2,3.7c-0.5,1.4-0.8,2.8-0.8,4.3c0,1.2,0.2,2.3,0.5,3.4
				c0.3,1.1,0.8,2.1,1.4,3.1c0.6,1,1.4,1.8,2.3,2.5c0.9,0.7,1.9,1.3,3.2,1.7c1.2,0.4,2.6,0.6,4,0.6c1.8,0,3.3-0.3,4.6-0.9
				c1.3-0.6,2.6-1.6,3.7-3.1l-3.3-3.4C270.6,68.7,269.7,69.3,268.7,69.7z"/>
			<path class="st1" d="M297.8,63.6c0-3.2-1-5.9-3.1-8c-2-2.1-4.6-3.2-7.7-3.2H287c-1.8,0-3.4,0.3-4.8,1c-1.4,0.7-2.6,1.5-3.5,2.6
				c-0.9,1.1-1.6,2.3-2.1,3.7c-0.5,1.4-0.7,2.8-0.7,4.2v0.1c0,1.4,0.2,2.7,0.7,4c0.5,1.3,1.2,2.5,2.1,3.6c0.9,1.1,2.1,1.9,3.5,2.6
				c1.5,0.6,3.1,1,4.9,1c3.3,0,6.3-1.3,8.7-4l-3.3-2.7c-1.2,0.9-2.5,1.5-4.1,1.7c-0.4,0.1-0.7,0.1-1.1,0.1c-1.1,0-2.2-0.2-3.1-0.7
				c-1.3-0.6-2-1.6-2.4-2.8h15.8C297.7,65.7,297.8,64.7,297.8,63.6z M281.8,61.7c0.2-1.4,0.8-2.4,1.8-3.1c1-0.7,2.1-1,3.4-1
				c1.2,0,2.3,0.3,3.3,1c0.9,0.7,1.5,1.7,1.8,3.1H281.8z"/>
			<polygon class="st1" points="126.2,44.5 122.2,65.4 114.8,44.5 111,44.5 103.6,65.4 99.6,44.5 92.9,44.5 100.4,74.8 106,74.8 
				112.9,54.3 119.8,74.8 125.4,74.8 132.9,44.5 			"/>
			<path class="st1" d="M220.7,67.7v0.4c0,1,0.1,1.9,0.4,2.7c0.3,0.9,0.8,1.6,1.4,2.2c0.6,0.6,1.3,1,2.2,1.4c0.8,0.4,2,0.6,2.9,0.6
				c0.9,0.1,2.6,0,4-0.2l-2-4.9c-0.3,0-1.6,0-2.3-0.4c-0.7-0.5-1-1.2-1-1.9V44.7h-5.7V67.7z"/>
		</g>
		<g>
			<path class="st1" d="M164.5,36.2c0.5-0.2,1-0.5,1.6-0.9l0.3,1.4h4.4V24.9v-9.1c-2.9-1-5.6-1.6-8.3-1.4c-2.1,0.1-3.3,0.2-5.7,1.1
				c-2.5,1-4.8,3.2-5.8,5.5c-0.9,2.2-1.1,3.7-1.1,4.8c0,1.4,0.3,2.8,0.7,4.1c0.5,1.3,1.2,2.5,2,3.5c0.9,1,2,1.9,3.4,2.5
				c1.4,0.6,2.9,0.9,4.5,0.9C162,37,163.3,36.7,164.5,36.2z M157,30.5c-0.5-0.5-0.9-1.1-1.3-2c-0.3-0.8-0.5-1.8-0.5-2.8
				c0-1,0.2-1.9,0.6-2.8c0.4-0.9,1-1.6,1.7-2.1c2.3-1.8,5.9-1.7,7.9-1.1l0,10.3c0,0-1.6,1.7-4.1,1.9c-1.4,0.1-1.9-0.1-2.6-0.4
				C158.1,31.4,157.5,31,157,30.5z"/>
			<path class="st1" d="M191.9,17.2c-0.8-0.7-1.8-1.3-2.8-1.8c-1.1-0.5-2.2-0.8-3.4-0.9c-0.8-0.1-1.5-0.1-2.4-0.1
				c-0.5,0-0.9,0-1.4,0c-1.3,0.1-2.6,0.3-3.9,0.5c-1.2,0.3-2.4,0.6-3.6,1v20.7h5.9V20c0.9-0.4,1.8-0.6,2.8-0.6h0.4
				c0.8,0,1.6,0.1,2.4,0.4c0.8,0.3,1.5,0.8,2.1,1.6c0.5,0.8,0.8,1.8,0.8,2.9v12.5h5.8V24.2c0-1.5-0.3-2.9-0.7-4.1
				C193.4,18.9,192.7,17.9,191.9,17.2z"/>
			<path class="st1" d="M199.9,29.7v0.4c0,1,0.1,1.9,0.4,2.7c0.3,0.9,0.8,1.6,1.4,2.2c0.6,0.6,1.3,1,2.2,1.4c0.8,0.4,2,0.6,2.9,0.6
				c0.9,0.1,3.3,0,4.6-0.2l-2-5c-0.3,0-0.6,0.1-0.9,0.1c-0.8,0-1.5-0.2-2-0.5c-0.7-0.4-1.1-1-1.1-1.7v-9.7h3.9V15h-3.9V6.7h-5.7V15
				h-3.8v4.9h3.8V29.7z"/>
			<path class="st1" d="M242.4,20.1c1.3-0.4,2.3-0.6,3.1-0.6c0.6,0,1.1,0.1,1.6,0.2c0.5,0.1,0.9,0.4,1.4,0.7c0.4,0.3,0.7,0.8,1,1.4
				c0.2,0.5,0.3,1.2,0.3,1.9v0.1v12.9h5.5V24c0-1.4,0.4-2.4,1.1-3.1c0.7-0.7,1.6-1.1,2.6-1.1c1.1,0,1.9,0.3,2.6,1
				c0.7,0.7,1,1.7,1,3.2v12.8h5.7V24c0-1.8-0.2-3.3-0.7-4.6c-0.5-1.3-1.2-2.3-2-3c-0.9-0.7-1.8-1.2-2.9-1.5
				c-1.1-0.3-2.3-0.5-3.6-0.5c-1.4,0-2.6,0.3-3.8,0.8c-1.2,0.5-2.1,1.4-2.6,2.5c-0.3-0.7-0.8-1.2-1.3-1.7c-0.5-0.5-1.2-0.8-1.8-1.1
				c-0.7-0.2-1.3-0.4-2-0.5c-0.6-0.1-1.2-0.1-1.8-0.1h-0.3c-1.1,0-4.2,0.3-9.2,1.8v20.5h6.1V20.1z"/>
			<path class="st1" d="M98.1,35c2.1,1.2,5.2,1.8,8.1,1.8h17.7v-5.4h-5.4c0,0,0.3-0.3,0.7-0.7c1-1.1,1.6-2.5,2.2-3.8
				c0.7-1.8,1.1-3.8,1.1-5.9c0-2.9-0.7-5.6-2.2-8.1c-1.5-2.5-3.5-4.5-5.9-6c-2.5-1.5-5.2-2.2-8.1-2.2c-2.9,0-5.7,0.7-8.1,2.2
				c-2.5,1.5-4.5,3.5-5.9,6C90.7,15.3,90,18,90,20.9c0,3,0.7,5.7,2.2,8.2C93.6,31.6,95.6,33.5,98.1,35z M97.3,15.7
				c0.9-1.6,2.2-2.9,3.7-3.8c1.6-0.9,3.3-1.4,5.2-1.4c1.9,0,3.6,0.5,5.2,1.4c1.6,0.9,2.8,2.2,3.7,3.8c0.9,1.6,1.4,3.4,1.4,5.3
				c0,1.9-0.5,3.7-1.4,5.3c-0.9,1.6-2.2,2.9-3.7,3.8c-1.5,0.9-3.3,1.4-5.1,1.4c-1.9,0-3.6-0.5-5.2-1.4c-1.6-0.9-2.8-2.2-3.8-3.8
				c-0.9-1.6-1.4-3.4-1.4-5.3C95.9,19,96.4,17.3,97.3,15.7z"/>
			<path class="st1" d="M132.6,35.8c1.6,0.7,3.5,1.1,5.5,1.1c2.9,0,5.8-0.5,8.9-1.6V15h-5.8v16.4c-0.7,0.2-1.5,0.4-2.3,0.5
				c-0.2,0-0.4,0-0.6,0c-0.6,0-1.2-0.1-1.7-0.2c-0.7-0.2-1.4-0.5-1.9-0.8c-0.6-0.4-1-0.9-1.4-1.6c-0.3-0.6-0.5-1.3-0.5-2.1V27V15
				h-5.7v12c0,2.1,0.5,3.9,1.5,5.4C129.7,33.9,131,35.1,132.6,35.8z"/>
			<path class="st1" d="M218.1,35.8c1.6,0.7,3.5,1.1,5.5,1.1c2.9,0,5.8-0.5,8.9-1.6V15h-5.8v16.4c-0.7,0.2-1.5,0.4-2.3,0.5
				c-0.2,0-0.4,0-0.6,0c-0.6,0-1.2-0.1-1.7-0.2c-0.7-0.2-1.4-0.5-1.9-0.8c-0.6-0.4-1-0.9-1.4-1.6c-0.3-0.6-0.5-1.3-0.5-2.1V27V15
				h-5.7v12c0,2.1,0.5,3.9,1.5,5.4C215.2,33.9,216.5,35.1,218.1,35.8z"/>
		</g>
	</g>
</g>
</svg>
